<svg width="65" height="64" viewBox="0 0 65 64" fill="none" xmlns="http://www.w3.org/2000/svg">
<circle cx="32.5" cy="32" r="31.5" stroke="#FAD79D"/>
<circle cx="32.5" cy="32" r="28" fill="#FAD79D"/>
<g clip-path="url(#clip0_1_1437)">
<path d="M44.1167 26.5094L35.2283 19.6024C34.4483 18.9962 33.4882 18.667 32.5 18.667C31.5117 18.667 30.5517 18.9962 29.7717 19.6024L20.8817 26.5094C20.3474 26.9245 19.9151 27.456 19.6179 28.0635C19.3207 28.671 19.1663 29.3383 19.1667 30.0145V42.0034C19.1667 42.8866 19.5178 43.7337 20.143 44.3582C20.7681 44.9828 21.6159 45.3337 22.5 45.3337H42.5C43.384 45.3337 44.2319 44.9828 44.857 44.3582C45.4821 43.7337 45.8333 42.8866 45.8333 42.0034V30.0145C45.8333 28.6441 45.2 27.3503 44.1167 26.5094Z" fill="white" stroke="white" stroke-width="2" stroke-linecap="round" stroke-linejoin="round"/>
</g>
<path d="M27.5 37L37.5 27" stroke="#F6A105" stroke-width="2" stroke-linecap="round" stroke-linejoin="round"/>
<path d="M28.3333 28.6667C28.7936 28.6667 29.1667 28.2936 29.1667 27.8333C29.1667 27.3731 28.7936 27 28.3333 27C27.8731 27 27.5 27.3731 27.5 27.8333C27.5 28.2936 27.8731 28.6667 28.3333 28.6667Z" fill="#F6A105" stroke="#F6A105" stroke-width="2" stroke-linecap="round" stroke-linejoin="round"/>
<path d="M36.6663 36.9997C37.1266 36.9997 37.4997 36.6266 37.4997 36.1663C37.4997 35.7061 37.1266 35.333 36.6663 35.333C36.2061 35.333 35.833 35.7061 35.833 36.1663C35.833 36.6266 36.2061 36.9997 36.6663 36.9997Z" fill="#F6A105" stroke="#F6A105" stroke-width="2" stroke-linecap="round" stroke-linejoin="round"/>
<rect x="40.5" y="40" width="24" height="24" rx="12" fill="#F6A105"/>
<path d="M46.1 52.8C46.1 52.5879 46.1843 52.3844 46.3343 52.2343C46.4843 52.0843 46.6878 52 46.9 52H48.5C48.7122 52 48.9157 52.0843 49.0657 52.2343C49.2157 52.3844 49.3 52.5879 49.3 52.8V56.8C49.3 57.0122 49.2157 57.2157 49.0657 57.3657C48.9157 57.5157 48.7122 57.6 48.5 57.6H46.9C46.6878 57.6 46.4843 57.5157 46.3343 57.3657C46.1843 57.2157 46.1 57.0122 46.1 56.8V52.8ZM50.9 49.6C50.9 49.3879 50.9843 49.1844 51.1343 49.0343C51.2843 48.8843 51.4878 48.8 51.7 48.8H53.3C53.5122 48.8 53.7157 48.8843 53.8657 49.0343C54.0157 49.1844 54.1 49.3879 54.1 49.6V56.8C54.1 57.0122 54.0157 57.2157 53.8657 57.3657C53.7157 57.5157 53.5122 57.6 53.3 57.6H51.7C51.4878 57.6 51.2843 57.5157 51.1343 57.3657C50.9843 57.2157 50.9 57.0122 50.9 56.8V49.6ZM55.7 47.2C55.7 46.9879 55.7843 46.7844 55.9343 46.6343C56.0843 46.4843 56.2878 46.4 56.5 46.4H58.1C58.3122 46.4 58.5157 46.4843 58.6657 46.6343C58.8157 46.7844 58.9 46.9879 58.9 47.2V56.8C58.9 57.0122 58.8157 57.2157 58.6657 57.3657C58.5157 57.5157 58.3122 57.6 58.1 57.6H56.5C56.2878 57.6 56.0843 57.5157 55.9343 57.3657C55.7843 57.2157 55.7 57.0122 55.7 56.8V47.2Z" fill="white"/>
<defs>
<clipPath id="clip0_1_1437">
<rect width="32" height="32" fill="white" transform="translate(16.5 16)"/>
</clipPath>
</defs>
</svg>
