<svg width="64" height="64" viewBox="0 0 64 64" fill="none" xmlns="http://www.w3.org/2000/svg">
<circle cx="32" cy="32" r="31.5" stroke="#FAD79D"/>
<circle cx="32" cy="32" r="28" fill="#FAD79D"/>
<rect x="33.6499" y="25" width="2" height="10" fill="#F6A105"/>
<rect x="22" y="32" width="2" height="10" fill="#F6A105"/>
<rect x="39" y="25" width="2" height="10" fill="#F6A105"/>
<path d="M22.6667 26.6666C20.4533 26.6666 18.6667 28.4533 18.6667 30.6666V41.3333C18.6667 43.5466 20.4533 45.3333 22.6667 45.3333H24.6667C26.1333 45.3333 27.3333 44.1333 27.3333 42.6666V29.3333C27.3333 27.8666 26.1333 26.6666 24.6667 26.6666H22.6667ZM24 38.6666C24 39.2133 23.5467 39.6666 23 39.6666C22.4533 39.6666 22 39.2133 22 38.6666V33.3333C22 32.7866 22.4533 32.3333 23 32.3333C23.5467 32.3333 24 32.7866 24 33.3333V38.6666Z" fill="white"/>
<path d="M41.3333 18.6666H33.3333C31.12 18.6666 29.3333 20.4533 29.3333 22.6666V41.3333C29.3333 43.5466 31.12 45.3333 33.3333 45.3333H34C34.3733 45.3333 34.6667 45.04 34.6667 44.6666V40C34.6667 39.2666 35.2667 38.6666 36 38.6666H38.6667C39.4 38.6666 40 39.2666 40 40V44.6666C40 45.04 40.2933 45.3333 40.6667 45.3333H41.3333C43.5467 45.3333 45.3333 43.5466 45.3333 41.3333V22.6666C45.3333 20.4533 43.5467 18.6666 41.3333 18.6666ZM35.6667 33.3333C35.6667 33.88 35.2133 34.3333 34.6667 34.3333C34.12 34.3333 33.6667 33.88 33.6667 33.3333V26.6666C33.6667 26.12 34.12 25.6666 34.6667 25.6666C35.2133 25.6666 35.6667 26.12 35.6667 26.6666V33.3333ZM41 33.3333C41 33.88 40.5467 34.3333 40 34.3333C39.4533 34.3333 39 33.88 39 33.3333V26.6666C39 26.12 39.4533 25.6666 40 25.6666C40.5467 25.6666 41 26.12 41 26.6666V33.3333Z" fill="white"/>
<rect x="40" y="40" width="24" height="24" rx="12" fill="#F6A105"/>
<path d="M51.6667 58C55.1645 58 58 55.1645 58 51.6667C58 48.1689 55.1645 45.3334 51.6667 45.3334C48.1689 45.3334 45.3333 48.1689 45.3333 51.6667C45.3333 55.1645 48.1689 58 51.6667 58Z" stroke="white" stroke-width="2" stroke-linecap="round" stroke-linejoin="round"/>
<path d="M58.6667 58.6667L57.3333 57.3334" stroke="white" stroke-width="2" stroke-linecap="round" stroke-linejoin="round"/>
</svg>
